<?xml version="1.0" encoding="UTF-8"?>
<svg xmlns="http://www.w3.org/2000/svg" viewBox="0 0 500 300">
  <!-- Background -->
  <rect width="500" height="300" fill="#1a2a3a" rx="15" ry="15"/>
  
  <!-- Orbit path -->
  <ellipse cx="250" cy="180" rx="170" ry="80" fill="none" stroke="#3a5a7a" stroke-width="2" stroke-dasharray="4 4"/>
  
  <!-- Planet/Earth -->
  <circle cx="250" cy="180" r="50" fill="#4a90e2"/>
  <circle cx="250" cy="180" r="50" fill="url(#earthGradient)"/>
  
  <!-- Spacecraft -->
  <g transform="translate(100,130) rotate(-25)">
    <!-- Spacecraft body -->
    <rect x="-15" y="-10" width="30" height="20" fill="#e0e0e0" rx="2" ry="2"/>
    <!-- Solar panels -->
    <rect x="-35" y="-5" width="20" height="10" fill="#4a90e2"/>
    <rect x="15" y="-5" width="20" height="10" fill="#4a90e2"/>
    <!-- Antenna -->
    <circle cx="10" cy="-10" r="5" fill="#e0e0e0"/>
    <line x1="10" y1="-5" x2="10" y2="-20" stroke="#e0e0e0" stroke-width="1.5"/>
  </g>
  
  <!-- Clock face -->
  <circle cx="400" cy="90" r="40" fill="none" stroke="#fff" stroke-width="2"/>
  
  <!-- Clock hands -->
  <line x1="400" y1="90" x2="400" y2="60" stroke="#fff" stroke-width="2"/>
  <line x1="400" y1="90" x2="420" y2="90" stroke="#fff" stroke-width="2"/>
  
  <!-- Clock ticks -->
  <line x1="400" y1="50" x2="400" y2="55" stroke="#fff" stroke-width="1.5"/>
  <line x1="440" y1="90" x2="435" y2="90" stroke="#fff" stroke-width="1.5"/>
  <line x1="400" y1="130" x2="400" y2="125" stroke="#fff" stroke-width="1.5"/>
  <line x1="360" y1="90" x2="365" y2="90" stroke="#fff" stroke-width="1.5"/>
  
  <!-- Connected lines representing time correlation -->
  <line x1="130" y1="130" x2="400" y2="90" stroke="#f5a623" stroke-width="2" stroke-dasharray="5 3"/>
  <line x1="250" y1="180" x2="400" y2="90" stroke="#f5a623" stroke-width="2" stroke-dasharray="5 3"/>
  
  <!-- Time correlation glow -->
  <circle cx="400" cy="90" r="5" fill="#f5a623">
    <animate attributeName="opacity" values="0.5;1;0.5" dur="2s" repeatCount="indefinite"/>
  </circle>
  <circle cx="130" cy="130" r="5" fill="#f5a623">
    <animate attributeName="opacity" values="0.5;1;0.5" dur="2s" repeatCount="indefinite" begin="0.5s"/>
  </circle>
  <circle cx="250" cy="180" r="5" fill="#f5a623">
    <animate attributeName="opacity" values="0.5;1;0.5" dur="2s" repeatCount="indefinite" begin="1s"/>
  </circle>
  
  <!-- Logo text -->
  <text x="250" y="240" font-family="Arial, sans-serif" font-size="36" font-weight="bold" text-anchor="middle" fill="#ffffff">MMTC</text>
  <text x="250" y="270" font-family="Arial, sans-serif" font-size="14" text-anchor="middle" fill="#ffffff">Multi-Mission Time Correlation</text>
  
  <!-- Gradients and effects -->
  <defs>
    <linearGradient id="earthGradient" x1="0%" y1="0%" x2="100%" y2="100%">
      <stop offset="0%" stop-color="#4a90e2" stop-opacity="1"/>
      <stop offset="100%" stop-color="#1a4a7a" stop-opacity="1"/>
    </linearGradient>
  </defs>
</svg>