<?xml version="1.0" encoding="UTF-8"?>
<svg xmlns="http://www.w3.org/2000/svg" viewBox="0 0 200 200">
  <!-- Main processing box -->
  <rect x="75" y="80" width="50" height="40" fill="#f0f0f0" stroke="#333" stroke-width="2" rx="5" ry="5"/>
  <text x="100" y="102" text-anchor="middle" fill="#333" font-family="Arial" font-size="12">MMTC</text>
  
  <!-- Input arrow -->
  <line x1="50" y1="100" x2="75" y2="100" stroke="#333" stroke-width="2" stroke-linecap="round"/>
  <polygon points="75,100 67,96 67,104" fill="#333"/>
  
  <!-- Input data -->
  <rect x="20" y="85" width="30" height="30" fill="#f0f0f0" stroke="#333" stroke-width="1.5" rx="2" ry="2"/>
  <line x1="25" y1="95" x2="45" y2="95" stroke="#333" stroke-width="1.5"/>
  <line x1="25" y1="100" x2="45" y2="100" stroke="#333" stroke-width="1.5"/>
  <line x1="25" y1="105" x2="45" y2="105" stroke="#333" stroke-width="1.5"/>
  <text x="35" y="115" text-anchor="middle" fill="#333" font-family="Arial" font-size="6">Telemetry</text>
  
  <!-- Output products -->
  <!-- SCLK Kernel -->
  <rect x="150" y="40" width="40" height="25" fill="#f0f0f0" stroke="#4a90e2" stroke-width="1.5" rx="2" ry="2"/>
  <line x1="155" y1="50" x2="185" y2="50" stroke="#4a90e2" stroke-width="1"/>
  <line x1="155" y1="55" x2="180" y2="55" stroke="#4a90e2" stroke-width="1"/>
  <text x="170" y="65" text-anchor="middle" fill="#333" font-family="Arial" font-size="6">SCLK Kernel</text>
  
  <!-- SCLK/SCET file -->
  <rect x="150" y="80" width="40" height="25" fill="#f0f0f0" stroke="#4a90e2" stroke-width="1.5" rx="2" ry="2"/>
  <line x1="155" y1="90" x2="185" y2="90" stroke="#4a90e2" stroke-width="1"/>
  <line x1="155" y1="95" x2="180" y2="95" stroke="#4a90e2" stroke-width="1"/>
  <text x="170" y="105" text-anchor="middle" fill="#333" font-family="Arial" font-size="6">SCLK/SCET</text>
  
  <!-- Uplink Command File -->
  <rect x="150" y="120" width="40" height="25" fill="#f0f0f0" stroke="#4a90e2" stroke-width="1.5" rx="2" ry="2"/>
  <line x1="155" y1="130" x2="185" y2="130" stroke="#4a90e2" stroke-width="1"/>
  <line x1="155" y1="135" x2="180" y2="135" stroke="#4a90e2" stroke-width="1"/>
  <text x="170" y="145" text-anchor="middle" fill="#333" font-family="Arial" font-size="6">Uplink Cmd</text>
  
  <!-- Time History File -->
  <rect x="150" y="160" width="40" height="25" fill="#f0f0f0" stroke="#4a90e2" stroke-width="1.5" rx="2" ry="2"/>
  <line x1="155" y1="170" x2="185" y2="170" stroke="#4a90e2" stroke-width="1"/>
  <line x1="155" y1="175" x2="180" y2="175" stroke="#4a90e2" stroke-width="1"/>
  <text x="170" y="185" text-anchor="middle" fill="#333" font-family="Arial" font-size="6">Time History</text>
  
  <!-- Output arrows -->
  <line x1="125" y1="95" x2="135" y2="95" stroke="#4a90e2" stroke-width="2" stroke-linecap="round"/>
  <line x1="135" y1="95" x2="135" y2="52.5" stroke="#4a90e2" stroke-width="2" stroke-linecap="round"/>
  <line x1="135" y1="52.5" x2="150" y2="52.5" stroke="#4a90e2" stroke-width="2" stroke-linecap="round"/>
  <polygon points="150,52.5 142,48.5 142,56.5" fill="#4a90e2"/>
  
  <line x1="135" y1="95" x2="135" y2="92.5" stroke="#4a90e2" stroke-width="2" stroke-linecap="round"/>
  <line x1="135" y1="92.5" x2="150" y2="92.5" stroke="#4a90e2" stroke-width="2" stroke-linecap="round"/>
  <polygon points="150,92.5 142,88.5 142,96.5" fill="#4a90e2"/>
  
  <line x1="135" y1="95" x2="135" y2="132.5" stroke="#4a90e2" stroke-width="2" stroke-linecap="round"/>
  <line x1="135" y1="132.5" x2="150" y2="132.5" stroke="#4a90e2" stroke-width="2" stroke-linecap="round"/>
  <polygon points="150,132.5 142,128.5 142,136.5" fill="#4a90e2"/>
  
  <line x1="135" y1="132.5" x2="135" y2="172.5" stroke="#4a90e2" stroke-width="2" stroke-linecap="round"/>
  <line x1="135" y1="172.5" x2="150" y2="172.5" stroke="#4a90e2" stroke-width="2" stroke-linecap="round"/>
  <polygon points="150,172.5 142,168.5 142,176.5" fill="#4a90e2"/>
  
  <!-- Decorative elements -->
  <circle cx="100" cy="80" r="3" fill="#4a90e2"/>
  <circle cx="100" cy="120" r="3" fill="#4a90e2"/>
</svg>